<svg width="735.44375px" height="122px" xmlns="http://www.w3.org/2000/svg" viewBox="-117.72187500000001 14 735.44375 122" style="background: rgba(0, 0, 0, 0);" preserveAspectRatio="xMidYMid"><defs><linearGradient id="editing-outline-gradient" x1="-0.41354545764260087" x2="1.4135454576426008" y1="0.09326335692419985" y2="0.9067366430758002"><stop offset="0" stop-color="#ee4208"></stop><stop offset="1" stop-color="#4139ff"></stop></linearGradient><filter id="editing-outline" x="-100%" y="-100%" width="300%" height="300%"><feMorphology in="SourceGraphic" operator="dilate" radius="1" result="outline"></feMorphology><feComposite operator="out" in="outline" in2="SourceAlpha"></feComposite></filter></defs><g filter="url(#editing-outline)"><g transform="translate(-12.62000647187233, 104.79000091552734)"><path 
class="ani"
d="M30.21-33.92L30.21-33.92L30.21-33.92Q25.02-33.92 21.25-35.65L21.25-35.65L19.20-25.28L31.55-25.28L31.55-25.28Q31.55-21.89 29.86-19.74L29.86-19.74L29.86-19.74Q28.16-17.60 25.09-17.60L25.09-17.60L25.09-17.60Q21.76-17.60 18.69-18.82L18.69-18.82L18.69-18.82Q18.05-19.07 17.98-19.14L17.98-19.14L14.34 0L0.38 0L8.51-42.24L37.06-42.24L37.06-42.24Q37.06-38.34 35.23-36.13L35.23-36.13L35.23-36.13Q33.41-33.92 30.21-33.92ZM37.79-1.92L37.79-1.92L37.79-1.92Q36.29-3.58 35.62-6.21L35.62-6.21L35.62-6.21Q34.94-8.83 34.94-13.12L34.94-13.12L34.94-13.12Q34.94-17.41 36.42-21.31L36.42-21.31L36.42-21.31Q37.89-25.22 40.58-28.03L40.58-28.03L40.58-28.03Q46.08-33.92 55.17-33.92L55.17-33.92L55.17-33.92Q58.43-33.92 60.80-32.83L60.80-32.83L71.74-33.92L67.01-8.96L67.01-8.96Q66.82-8.19 66.82-6.78L66.82-6.78L66.82-6.78Q66.82-5.38 67.68-4.48L67.68-4.48L67.68-4.48Q68.54-3.58 69.82-3.46L69.82-3.46L69.82-3.46Q69.18-1.28 66.85 0L66.85 0L66.85 0Q64.51 1.28 61.89 1.28L61.89 1.28L61.89 1.28Q59.26 1.28 57.50 0.29L57.50 0.29L57.50 0.29Q55.74-0.70 55.23-2.37L55.23-2.37L55.23-2.37Q54.21-0.77 52.03 0.26L52.03 0.26L52.03 0.26Q49.86 1.28 46.94 1.28L46.94 1.28L46.94 1.28Q44.03 1.28 41.66 0.51L41.66 0.51L41.66 0.51Q39.30-0.26 37.79-1.92ZM51.30-27.90L51.30-27.90L51.30-27.90Q50.56-26.75 49.92-24.80L49.92-24.80L49.92-24.80Q49.28-22.85 48.22-17.63L48.22-17.63L48.22-17.63Q47.17-12.42 47.17-8.70L47.17-8.70L47.17-8.70Q47.17-4.99 47.74-3.90L47.74-3.90L47.74-3.90Q48.32-2.82 49.34-2.82L49.34-2.82L49.34-2.82Q51.39-2.82 52.90-4.77L52.90-4.77L52.90-4.77Q54.40-6.72 54.98-10.18L54.98-10.18L58.37-28.93L58.37-28.93Q57.02-30.08 55.46-30.08L55.46-30.08L55.46-30.08Q53.89-30.08 52.96-29.57L52.96-29.57L52.96-29.57Q52.03-29.06 51.30-27.90ZM94.34-22.46L94.34-22.46L94.34-22.46Q95.23-24.83 95.23-26.88L95.23-26.88L95.23-26.88Q95.23-30.66 92.16-30.66L92.16-30.66L92.16-30.66Q90.56-30.66 89.25-29.22L89.25-29.22L89.25-29.22Q87.94-27.78 87.94-25.98L87.94-25.98L87.94-25.98Q87.94-24.70 88.96-23.68L88.96-23.68L88.96-23.68Q90.43-22.27 94.21-19.97L94.21-19.97L94.21-19.97Q97.98-17.66 99.42-15.78L99.42-15.78L99.42-15.78Q100.86-13.89 100.86-11.30L100.86-11.30L100.86-11.30Q100.86-8.70 99.62-6.34L99.62-6.34L99.62-6.34Q98.37-3.97 96.13-2.30L96.13-2.30L96.13-2.30Q91.33 1.28 83.65 1.28L83.65 1.28L83.65 1.28Q79.49 1.28 76.29-0.90L76.29-0.90L76.29-0.90Q73.09-3.01 73.09-5.50L73.09-5.50L73.09-5.50Q73.09-8 74.91-9.47L74.91-9.47L74.91-9.47Q76.74-10.94 79.42-10.94L79.42-10.94L79.42-10.94Q82.11-10.94 83.78-9.92L83.78-9.92L83.78-9.92Q82.94-7.81 82.94-6.40L82.94-6.40L82.94-6.40Q82.94-2.18 86.53-2.18L86.53-2.18L86.53-2.18Q88.06-2.18 89.09-3.14L89.09-3.14L89.09-3.14Q90.11-4.10 90.11-5.76L90.11-5.76L90.11-5.76Q90.11-9.02 84.61-12.48L84.61-12.48L84.61-12.48Q80.13-15.42 79.10-16.58L79.10-16.58L79.10-16.58Q77.38-18.62 77.38-21.18L77.38-21.18L77.38-21.18Q77.38-23.74 78.59-26.18L78.59-26.18L78.59-26.18Q79.81-28.61 82.05-30.34L82.05-30.34L82.05-30.34Q86.72-33.92 94.85-33.92L94.85-33.92L94.85-33.92Q99.01-33.92 101.47-32.26L101.47-32.26L101.47-32.26Q103.94-30.59 103.94-27.78L103.94-27.78L103.94-27.78Q103.94-24.96 102.24-23.36L102.24-23.36L102.24-23.36Q100.54-21.76 97.47-21.76L97.47-21.76L97.47-21.76Q95.36-21.76 94.34-22.46ZM138.50-7.10L138.50-7.10L138.50-7.10Q138.50-4.29 141.38-3.46L141.38-3.46L141.38-3.46Q140.67-1.09 137.92 0.19L137.92 0.19L137.92 0.19Q135.62 1.28 133.09 1.28L133.09 1.28L133.09 1.28Q130.56 1.28 129.25 0.61L129.25 0.61L129.25 0.61Q127.94-0.06 127.23-1.15L127.23-1.15L127.23-1.15Q126.08-2.82 126.08-5.95L126.08-5.95L126.08-5.95Q126.08-7.81 127.10-12.93L127.10-12.93L128-17.79L128-17.79Q129.09-23.36 129.09-25.41L129.09-25.41L129.09-25.41Q129.09-28.99 127.10-28.99L127.10-28.99L127.10-28.99Q124.61-28.99 123.01-25.34L123.01-25.34L123.01-25.34Q122.37-23.94 121.92-21.82L121.92-21.82L117.57 0L104.70 1.28L113.73-44.80L126.59-46.08L126.08-43.52L126.08-43.52Q124.29-33.66 122.75-30.34L122.75-30.34L122.75-30.34Q126.34-33.92 132.93-33.92L132.93-33.92L132.93-33.92Q139.90-33.92 141.18-29.31L141.18-29.31L141.18-29.31Q141.63-27.84 141.63-26.56L141.63-26.56L141.63-26.56Q141.63-25.28 141.54-24.29L141.54-24.29L141.54-24.29Q141.44-23.30 141.12-21.50L141.12-21.50L140.29-16.90L138.82-9.66L138.82-9.66Q138.50-8.19 138.50-7.10ZM161.92-3.52L161.92-3.52L161.92-3.52Q159.94 1.28 153.60 1.28L153.60 1.28L153.60 1.28Q150.34 1.28 148.29-0.96L148.29-0.96L148.29-0.96Q146.56-2.94 146.56-4.93L146.56-4.93L146.56-4.93Q146.56-10.11 148.93-20.22L148.93-20.22L151.30-32.64L164.29-33.92L160.38-13.70L160.38-13.70Q159.30-8.96 159.30-7.30L159.30-7.30L159.30-7.30Q159.30-3.65 161.92-3.52ZM152.45-41.54L152.45-41.54L152.45-41.54Q152.45-44.03 154.53-45.38L154.53-45.38L154.53-45.38Q156.61-46.72 159.62-46.72L159.62-46.72L159.62-46.72Q162.62-46.72 164.45-45.38L164.45-45.38L164.45-45.38Q166.27-44.03 166.27-41.54L166.27-41.54L166.27-41.54Q166.27-39.04 164.26-37.76L164.26-37.76L164.26-37.76Q162.24-36.48 159.23-36.48L159.23-36.48L159.23-36.48Q156.22-36.48 154.34-37.76L154.34-37.76L154.34-37.76Q152.45-39.04 152.45-41.54ZM181.31 1.28L181.31 1.28L181.31 1.28Q167.23 1.28 167.23-11.97L167.23-11.97L167.23-11.97Q167.23-21.38 172.42-27.46L172.42-27.46L172.42-27.46Q177.92-33.92 187.46-33.92L187.46-33.92L187.46-33.92Q194.37-33.92 197.89-30.72L197.89-30.72L197.89-30.72Q201.41-27.52 201.41-20.80L201.41-20.80L201.41-20.80Q201.41-10.56 195.90-4.61L195.90-4.61L195.90-4.61Q190.53 1.28 181.31 1.28ZM182.98-26.56L182.98-26.56L182.98-26.56Q182.21-24.83 181.60-22.24L181.60-22.24L181.60-22.24Q180.99-19.65 180.22-15.55L180.22-15.55L180.22-15.55Q179.46-11.46 179.46-6.40L179.46-6.40L179.46-6.40Q179.46-4.74 180-3.65L180-3.65L180-3.65Q180.54-2.56 182.02-2.56L182.02-2.56L182.02-2.56Q183.49-2.56 184.42-3.26L184.42-3.26L184.42-3.26Q185.34-3.97 186.05-5.63L186.05-5.63L186.05-5.63Q187.33-8.58 188.35-14.05L188.35-14.05L188.35-14.05Q189.38-19.52 189.47-21.89L189.47-21.89L189.47-21.89Q189.57-24.26 189.57-26.02L189.57-26.02L189.57-26.02Q189.57-27.78 189.06-28.93L189.06-28.93L189.06-28.93Q188.54-30.08 187.10-30.08L187.10-30.08L187.10-30.08Q185.66-30.08 184.70-29.18L184.70-29.18L184.70-29.18Q183.74-28.29 182.98-26.56ZM232.26 1.28L232.26 1.28L232.26 1.28Q224.51 1.28 224.51-4.74L224.51-4.74L224.51-4.74Q224.58-6.40 225.09-9.22L225.09-9.22L226.24-15.10L226.24-15.10Q227.97-23.42 227.97-25.28L227.97-25.28L227.97-25.28Q227.97-28.99 225.79-28.99L225.79-28.99L225.79-28.99Q222.14-28.99 220.22-19.46L220.22-19.46L216.45 0L203.58 1.28L210.24-32.70L220.74-33.92L219.71-27.65L219.71-27.65Q222.72-33.92 231.94-33.92L231.94-33.92L231.94-33.92Q236.42-33.92 238.30-32.03L238.30-32.03L238.30-32.03Q240.19-30.14 240.19-25.92L240.19-25.92L240.19-25.92Q240.19-21.95 238.14-12.67L238.14-12.67L238.14-12.67Q237.18-8.51 237.18-6.94L237.18-6.94L237.18-6.94Q237.18-5.38 238.05-4.48L238.05-4.48L238.05-4.48Q238.91-3.58 240.19-3.46L240.19-3.46L240.19-3.46Q239.55-1.28 237.34 0L237.34 0L237.34 0Q235.14 1.28 232.26 1.28ZM273.86-3.52L273.86-3.52L273.86-3.52Q271.87 1.28 265.54 1.28L265.54 1.28L265.54 1.28Q262.27 1.28 260.22-0.96L260.22-0.96L260.22-0.96Q258.50-2.94 258.50-4.93L258.50-4.93L258.50-4.93Q258.50-10.11 260.86-20.22L260.86-20.22L263.23-32.64L276.22-33.92L272.32-13.70L272.32-13.70Q271.23-8.96 271.23-7.30L271.23-7.30L271.23-7.30Q271.23-3.65 273.86-3.52ZM264.38-41.54L264.38-41.54L264.38-41.54Q264.38-44.03 266.46-45.38L266.46-45.38L266.46-45.38Q268.54-46.72 271.55-46.72L271.55-46.72L271.55-46.72Q274.56-46.72 276.38-45.38L276.38-45.38L276.38-45.38Q278.21-44.03 278.21-41.54L278.21-41.54L278.21-41.54Q278.21-39.04 276.19-37.76L276.19-37.76L276.19-37.76Q274.18-36.48 271.17-36.48L271.17-36.48L271.17-36.48Q268.16-36.48 266.27-37.76L266.27-37.76L266.27-37.76Q264.38-39.04 264.38-41.54ZM306.37 1.28L306.37 1.28L306.37 1.28Q298.62 1.28 298.62-4.74L298.62-4.74L298.62-4.74Q298.69-6.40 299.20-9.22L299.20-9.22L300.35-15.10L300.35-15.10Q302.08-23.42 302.08-25.28L302.08-25.28L302.08-25.28Q302.08-28.99 299.90-28.99L299.90-28.99L299.90-28.99Q296.26-28.99 294.34-19.46L294.34-19.46L290.56 0L277.70 1.28L284.35-32.70L294.85-33.92L293.82-27.65L293.82-27.65Q296.83-33.92 306.05-33.92L306.05-33.92L306.05-33.92Q310.53-33.92 312.42-32.03L312.42-32.03L312.42-32.03Q314.30-30.14 314.30-25.92L314.30-25.92L314.30-25.92Q314.30-21.95 312.26-12.67L312.26-12.67L312.26-12.67Q311.30-8.51 311.30-6.94L311.30-6.94L311.30-6.94Q311.30-5.38 312.16-4.48L312.16-4.48L312.16-4.48Q313.02-3.58 314.30-3.46L314.30-3.46L314.30-3.46Q313.66-1.28 311.46 0L311.46 0L311.46 0Q309.25 1.28 306.37 1.28ZM339.58-33.92L339.58-33.92L339.58-33.92Q341.89-33.92 343.68-33.41L343.68-33.41L343.68-33.41Q343.74-33.66 343.87-34.37L343.87-34.37L344.19-36.35L344.19-36.35Q344.45-37.63 344.83-39.74L344.83-39.74L345.86-44.80L358.59-46.08L351.49-8.96L351.49-8.96Q351.42-8.58 351.42-7.94L351.42-7.94L351.42-6.91L351.42-6.91Q351.42-5.50 352.13-4.45L352.13-4.45L352.13-4.45Q352.83-3.39 353.98-3.39L353.98-3.39L353.98-3.39Q352.70-0.38 348.80 0.90L348.80 0.90L348.80 0.90Q347.46 1.28 345.57 1.28L345.57 1.28L345.57 1.28Q343.68 1.28 341.95 0.29L341.95 0.29L341.95 0.29Q340.22-0.70 339.71-2.37L339.71-2.37L339.71-2.37Q338.69-0.70 336.64 0.29L336.64 0.29L336.64 0.29Q334.59 1.28 331.62 1.28L331.62 1.28L331.62 1.28Q328.64 1.28 326.18 0.51L326.18 0.51L326.18 0.51Q323.71-0.26 322.18-1.92L322.18-1.92L322.18-1.92Q319.36-5.18 319.36-12.61L319.36-12.61L319.36-12.61Q319.36-22.21 324.99-28.03L324.99-28.03L324.99-28.03Q330.62-33.92 339.58-33.92ZM339.14-30.08L339.14-30.08L339.14-30.08Q336.77-30.08 335.49-27.52L335.49-27.52L335.49-27.52Q334.21-24.96 332.90-18.62L332.90-18.62L332.90-18.62Q331.58-12.29 331.58-6.59L331.58-6.59L331.58-6.59Q331.58-2.69 333.89-2.69L333.89-2.69L333.89-2.69Q335.94-2.69 337.38-4.74L337.38-4.74L337.38-4.74Q338.82-6.78 339.39-10.18L339.39-10.18L342.85-28.93L342.85-28.93Q341.50-30.08 339.14-30.08ZM379.97-2.69L379.97-2.69L379.97-2.69Q376.90 1.28 369.28 1.28L369.28 1.28L369.28 1.28Q365.31 1.28 362.43-1.12L362.43-1.12L362.43-1.12Q359.55-3.52 359.55-6.98L359.55-6.98L359.55-6.98Q359.55-8.90 359.74-9.86L359.74-9.86L364.03-32.64L377.02-33.92L372.35-9.22L372.35-9.22Q372.10-7.81 372.10-6.98L372.10-6.98L372.10-6.98Q372.10-3.26 374.34-3.26L374.34-3.26L374.34-3.26Q376.83-3.26 378.62-6.66L378.62-6.66L378.62-6.66Q379.20-7.74 379.46-9.15L379.46-9.15L384-32.64L396.61-33.92L391.87-8.96L391.87-8.96Q391.68-8 391.68-6.98L391.68-6.98L391.68-6.98Q391.68-5.95 392.26-4.83L392.26-4.83L392.26-4.83Q392.83-3.71 394.69-3.46L394.69-3.46L394.69-3.46Q394.30-1.92 392.96-0.90L392.96-0.90L392.96-0.90Q390.14 1.28 387.10 1.28L387.10 1.28L387.10 1.28Q384.06 1.28 382.27 0.19L382.27 0.19L382.27 0.19Q380.48-0.90 379.97-2.69ZM419.20-22.46L419.20-22.46L419.20-22.46Q420.10-24.83 420.10-26.88L420.10-26.88L420.10-26.88Q420.10-30.66 417.02-30.66L417.02-30.66L417.02-30.66Q415.42-30.66 414.11-29.22L414.11-29.22L414.11-29.22Q412.80-27.78 412.80-25.98L412.80-25.98L412.80-25.98Q412.80-24.70 413.82-23.68L413.82-23.68L413.82-23.68Q415.30-22.27 419.07-19.97L419.07-19.97L419.07-19.97Q422.85-17.66 424.29-15.78L424.29-15.78L424.29-15.78Q425.73-13.89 425.73-11.30L425.73-11.30L425.73-11.30Q425.73-8.70 424.48-6.34L424.48-6.34L424.48-6.34Q423.23-3.97 420.99-2.30L420.99-2.30L420.99-2.30Q416.19 1.28 408.51 1.28L408.51 1.28L408.51 1.28Q404.35 1.28 401.15-0.90L401.15-0.90L401.15-0.90Q397.95-3.01 397.95-5.50L397.95-5.50L397.95-5.50Q397.95-8 399.78-9.47L399.78-9.47L399.78-9.47Q401.60-10.94 404.29-10.94L404.29-10.94L404.29-10.94Q406.98-10.94 408.64-9.92L408.64-9.92L408.64-9.92Q407.81-7.81 407.81-6.40L407.81-6.40L407.81-6.40Q407.81-2.18 411.39-2.18L411.39-2.18L411.39-2.18Q412.93-2.18 413.95-3.14L413.95-3.14L413.95-3.14Q414.98-4.10 414.98-5.76L414.98-5.76L414.98-5.76Q414.98-9.02 409.47-12.48L409.47-12.48L409.47-12.48Q404.99-15.42 403.97-16.58L403.97-16.58L403.97-16.58Q402.24-18.62 402.24-21.18L402.24-21.18L402.24-21.18Q402.24-23.74 403.46-26.18L403.46-26.18L403.46-26.18Q404.67-28.61 406.91-30.34L406.91-30.34L406.91-30.34Q411.58-33.92 419.71-33.92L419.71-33.92L419.71-33.92Q423.87-33.92 426.34-32.26L426.34-32.26L426.34-32.26Q428.80-30.59 428.80-27.78L428.80-27.78L428.80-27.78Q428.80-24.96 427.10-23.36L427.10-23.36L427.10-23.36Q425.41-21.76 422.34-21.76L422.34-21.76L422.34-21.76Q420.22-21.76 419.20-22.46ZM432.19-6.40L432.19-6.40L432.19-6.40Q432.19-8.13 433.09-12.48L433.09-12.48L436.48-29.76L432.70-29.76L432.96-31.68L432.96-31.68Q440.64-33.98 448.06-39.62L448.06-39.62L451.14-39.62L449.60-32.64L454.59-32.64L454.02-29.76L449.09-29.76L445.82-12.48L445.82-12.48Q444.99-8.51 444.99-7.17L444.99-7.17L444.99-7.17Q444.99-4.10 447.68-3.46L447.68-3.46L447.68-3.46Q447.04-1.28 444.74 0L444.74 0L444.74 0Q442.43 1.28 439.17 1.28L439.17 1.28L439.17 1.28Q435.90 1.28 434.05-0.77L434.05-0.77L434.05-0.77Q432.19-2.82 432.19-6.40ZM474.30-17.98L474.30-17.98L474.30-17.98Q476.61-22.08 476.61-26.24L476.61-26.24L476.61-26.24Q476.61-28.99 474.62-28.99L474.62-28.99L474.62-28.99Q473.09-28.99 471.49-26.37L471.49-26.37L471.49-26.37Q469.82-23.74 469.31-20.35L469.31-20.35L465.98 0L452.74 1.28L459.26-32.64L469.82-33.92L468.67-27.46L468.67-27.46Q471.81-33.92 478.85-33.92L478.85-33.92L478.85-33.92Q482.56-33.92 484.58-32L484.58-32L484.58-32Q486.59-30.08 486.59-26.14L486.59-26.14L486.59-26.14Q486.59-22.21 484.00-19.71L484.00-19.71L484.00-19.71Q481.41-17.22 476.99-17.22L476.99-17.22L476.99-17.22Q475.07-17.22 474.30-17.98ZM507.97-7.23L507.97-7.23L507.97-7.23Q504.64-3.78 498.56-3.78L498.56-3.78L498.56-3.78Q490.94-3.78 489.34-9.34L489.34-9.34L489.34-9.34Q488.83-11.01 488.83-12.86L488.83-12.86L488.83-12.86Q488.83-14.72 489.22-16.64L489.22-16.64L492.22-32.64L505.22-33.92L501.70-15.30L501.70-15.30Q501.57-14.46 501.38-13.57L501.38-13.57L501.38-13.57Q501.18-12.67 501.18-11.74L501.18-11.74L501.18-11.74Q501.18-10.82 501.50-10.21L501.50-10.21L501.50-10.21Q501.82-9.60 502.27-9.22L502.27-9.22L502.27-9.22Q503.04-8.70 504.42-8.70L504.42-8.70L504.42-8.70Q505.79-8.70 506.98-10.37L506.98-10.37L506.98-10.37Q508.16-12.03 508.74-14.91L508.74-14.91L512.26-32.64L524.86-33.92L520.06-8.77L520.06-8.77Q517.70 3.52 512.83 8.38L512.83 8.38L512.83 8.38Q510.34 10.88 507.10 11.87L507.10 11.87L507.10 11.87Q503.87 12.86 499.71 12.86L499.71 12.86L499.71 12.86Q492.99 12.86 489.15 10.75L489.15 10.75L489.15 10.75Q485.31 8.64 485.31 5.12L485.31 5.12L485.31 5.12Q485.31 2.50 487.30 0.99L487.30 0.99L487.30 0.99Q489.28-0.51 492.35-0.51L492.35-0.51L492.35-0.51Q495.04-0.51 497.09 0.64L497.09 0.64L497.09 0.64Q498.30 1.34 498.88 2.24L498.88 2.24L498.88 2.24Q497.41 3.52 497.41 5.63L497.41 5.63L497.41 5.63Q497.41 8.45 499.97 8.45L499.97 8.45L499.97 8.45Q504.19 8.45 506.62-1.28L506.62-1.28L506.62-1.28Q507.33-4.16 507.97-7.23Z" fill="url(#editing-outline-gradient)"></path></g></g><style>text {
  font-size: 64px;
  font-family: Arial Black;
  dominant-baseline: central;
  text-anchor: middle;
}</style></svg>