<svg width="7210.86875px" height="122px" xmlns="http://www.w3.org/2000/svg" viewBox="-110.93437499999999 14 721.86875 122" style="background: rgba(0, 0, 0, 0);" preserveAspectRatio="xMidYMid"><defs><linearGradient id="editing-outline-gradient" x1="-0.41354545764260087" x2="1.4135454576426008" y1="0.09326335692419985" y2="0.9067366430758002"><stop offset="0" stop-color="#ee4208"></stop><stop offset="1" stop-color="#4139ff"></stop></linearGradient><filter id="editing-outline" x="-100%" y="-100%" width="300%" height="300%"><feMorphology in="SourceGraphic" operator="dilate" radius="1" result="outline"></feMorphology><feComposite operator="out" in="outline" in2="SourceAlpha"></feComposite></filter></defs><g filter="url(#editing-outline)"><g transform="translate(-7.950014591217041, 104.79000091552734)"><path d="M26.05-37.12L26.05-37.12L26.05-37.12Q26.94-38.66 26.94-40.32L26.94-40.32L26.94-40.32Q26.94-43.26 25.15-43.26L25.15-43.26L25.15-43.26Q22.40-43.26 21.25-37.63L21.25-37.63L20.29-32.64L26.11-32.64L25.73-29.76L19.71-29.76L13.95 0L1.02 1.28L7.17-29.76L2.62-29.76L3.20-32.64L7.68-32.64L9.02-37.70L9.02-37.70Q10.18-42.37 15.10-44.54L15.10-44.54L15.10-44.54Q18.69-46.08 24.70-46.08L24.70-46.08L24.70-46.08Q30.72-46.08 33.41-44.54L33.41-44.54L33.41-44.54Q36.10-43.01 36.10-40.96L36.10-40.96L36.10-40.96Q36.10-38.91 34.50-37.63L34.50-37.63L34.50-37.63Q32.90-36.35 31.10-36.35L31.10-36.35L31.10-36.35Q27.58-36.35 26.05-37.12ZM27.81-1.92L27.81-1.92L27.81-1.92Q26.30-3.58 25.63-6.21L25.63-6.21L25.63-6.21Q24.96-8.83 24.96-13.12L24.96-13.12L24.96-13.12Q24.96-17.41 26.43-21.31L26.43-21.31L26.43-21.31Q27.90-25.22 30.59-28.03L30.59-28.03L30.59-28.03Q36.10-33.92 45.18-33.92L45.18-33.92L45.18-33.92Q48.45-33.92 50.82-32.83L50.82-32.83L61.76-33.92L57.02-8.96L57.02-8.96Q56.83-8.19 56.83-6.78L56.83-6.78L56.83-6.78Q56.83-5.38 57.70-4.48L57.70-4.48L57.70-4.48Q58.56-3.58 59.84-3.46L59.84-3.46L59.84-3.46Q59.20-1.28 56.86 0L56.86 0L56.86 0Q54.53 1.28 51.90 1.28L51.90 1.28L51.90 1.28Q49.28 1.28 47.52 0.29L47.52 0.29L47.52 0.29Q45.76-0.70 45.25-2.37L45.25-2.37L45.25-2.37Q44.22-0.77 42.05 0.26L42.05 0.26L42.05 0.26Q39.87 1.28 36.96 1.28L36.96 1.28L36.96 1.28Q34.05 1.28 31.68 0.51L31.68 0.51L31.68 0.51Q29.31-0.26 27.81-1.92ZM41.31-27.90L41.31-27.90L41.31-27.90Q40.58-26.75 39.94-24.80L39.94-24.80L39.94-24.80Q39.30-22.85 38.24-17.63L38.24-17.63L38.24-17.63Q37.18-12.42 37.18-8.70L37.18-8.70L37.18-8.70Q37.18-4.99 37.76-3.90L37.76-3.90L37.76-3.90Q38.34-2.82 39.36-2.82L39.36-2.82L39.36-2.82Q41.41-2.82 42.91-4.77L42.91-4.77L42.91-4.77Q44.42-6.72 44.99-10.18L44.99-10.18L48.38-28.93L48.38-28.93Q47.04-30.08 45.47-30.08L45.47-30.08L45.47-30.08Q43.90-30.08 42.98-29.57L42.98-29.57L42.98-29.57Q42.05-29.06 41.31-27.90ZM84.35-22.46L84.35-22.46L84.35-22.46Q85.25-24.83 85.25-26.88L85.25-26.88L85.25-26.88Q85.25-30.66 82.18-30.66L82.18-30.66L82.18-30.66Q80.58-30.66 79.26-29.22L79.26-29.22L79.26-29.22Q77.95-27.78 77.95-25.98L77.95-25.98L77.95-25.98Q77.95-24.70 78.98-23.68L78.98-23.68L78.98-23.68Q80.45-22.27 84.22-19.97L84.22-19.97L84.22-19.97Q88-17.66 89.44-15.78L89.44-15.78L89.44-15.78Q90.88-13.89 90.88-11.30L90.88-11.30L90.88-11.30Q90.88-8.70 89.63-6.34L89.63-6.34L89.63-6.34Q88.38-3.97 86.14-2.30L86.14-2.30L86.14-2.30Q81.34 1.28 73.66 1.28L73.66 1.28L73.66 1.28Q69.50 1.28 66.30-0.90L66.30-0.90L66.30-0.90Q63.10-3.01 63.10-5.50L63.10-5.50L63.10-5.50Q63.10-8 64.93-9.47L64.93-9.47L64.93-9.47Q66.75-10.94 69.44-10.94L69.44-10.94L69.44-10.94Q72.13-10.94 73.79-9.92L73.79-9.92L73.79-9.92Q72.96-7.81 72.96-6.40L72.96-6.40L72.96-6.40Q72.96-2.18 76.54-2.18L76.54-2.18L76.54-2.18Q78.08-2.18 79.10-3.14L79.10-3.14L79.10-3.14Q80.13-4.10 80.13-5.76L80.13-5.76L80.13-5.76Q80.13-9.02 74.62-12.48L74.62-12.48L74.62-12.48Q70.14-15.42 69.12-16.58L69.12-16.58L69.12-16.58Q67.39-18.62 67.39-21.18L67.39-21.18L67.39-21.18Q67.39-23.74 68.61-26.18L68.61-26.18L68.61-26.18Q69.82-28.61 72.06-30.34L72.06-30.34L72.06-30.34Q76.74-33.92 84.86-33.92L84.86-33.92L84.86-33.92Q89.02-33.92 91.49-32.26L91.49-32.26L91.49-32.26Q93.95-30.59 93.95-27.78L93.95-27.78L93.95-27.78Q93.95-24.96 92.26-23.36L92.26-23.36L92.26-23.36Q90.56-21.76 87.49-21.76L87.49-21.76L87.49-21.76Q85.38-21.76 84.35-22.46ZM128.51-7.10L128.51-7.10L128.51-7.10Q128.51-4.29 131.39-3.46L131.39-3.46L131.39-3.46Q130.69-1.09 127.94 0.19L127.94 0.19L127.94 0.19Q125.63 1.28 123.10 1.28L123.10 1.28L123.10 1.28Q120.58 1.28 119.26 0.61L119.26 0.61L119.26 0.61Q117.95-0.06 117.25-1.15L117.25-1.15L117.25-1.15Q116.10-2.82 116.10-5.95L116.10-5.95L116.10-5.95Q116.10-7.81 117.12-12.93L117.12-12.93L118.02-17.79L118.02-17.79Q119.10-23.36 119.10-25.41L119.10-25.41L119.10-25.41Q119.10-28.99 117.12-28.99L117.12-28.99L117.12-28.99Q114.62-28.99 113.02-25.34L113.02-25.34L113.02-25.34Q112.38-23.94 111.94-21.82L111.94-21.82L107.58 0L94.72 1.28L103.74-44.80L116.61-46.08L116.10-43.52L116.10-43.52Q114.30-33.66 112.77-30.34L112.77-30.34L112.77-30.34Q116.35-33.92 122.94-33.92L122.94-33.92L122.94-33.92Q129.92-33.92 131.20-29.31L131.20-29.31L131.20-29.31Q131.65-27.84 131.65-26.56L131.65-26.56L131.65-26.56Q131.65-25.28 131.55-24.29L131.55-24.29L131.55-24.29Q131.46-23.30 131.14-21.50L131.14-21.50L130.30-16.90L128.83-9.66L128.83-9.66Q128.51-8.19 128.51-7.10ZM151.94-3.52L151.94-3.52L151.94-3.52Q149.95 1.28 143.62 1.28L143.62 1.28L143.62 1.28Q140.35 1.28 138.30-0.96L138.30-0.96L138.30-0.96Q136.58-2.94 136.58-4.93L136.58-4.93L136.58-4.93Q136.58-10.11 138.94-20.22L138.94-20.22L141.31-32.64L154.30-33.92L150.40-13.70L150.40-13.70Q149.31-8.96 149.31-7.30L149.31-7.30L149.31-7.30Q149.31-3.65 151.94-3.52ZM142.46-41.54L142.46-41.54L142.46-41.54Q142.46-44.03 144.54-45.38L144.54-45.38L144.54-45.38Q146.62-46.72 149.63-46.72L149.63-46.72L149.63-46.72Q152.64-46.72 154.46-45.38L154.46-45.38L154.46-45.38Q156.29-44.03 156.29-41.54L156.29-41.54L156.29-41.54Q156.29-39.04 154.27-37.76L154.27-37.76L154.27-37.76Q152.26-36.48 149.25-36.48L149.25-36.48L149.25-36.48Q146.24-36.48 144.35-37.76L144.35-37.76L144.35-37.76Q142.46-39.04 142.46-41.54ZM171.33 1.28L171.33 1.28L171.33 1.28Q157.25 1.28 157.25-11.97L157.25-11.97L157.25-11.97Q157.25-21.38 162.43-27.46L162.43-27.46L162.43-27.46Q167.94-33.92 177.47-33.92L177.47-33.92L177.47-33.92Q184.38-33.92 187.90-30.72L187.90-30.72L187.90-30.72Q191.42-27.52 191.42-20.80L191.42-20.80L191.42-20.80Q191.42-10.56 185.92-4.61L185.92-4.61L185.92-4.61Q180.54 1.28 171.33 1.28ZM172.99-26.56L172.99-26.56L172.99-26.56Q172.22-24.83 171.62-22.24L171.62-22.24L171.62-22.24Q171.01-19.65 170.24-15.55L170.24-15.55L170.24-15.55Q169.47-11.46 169.47-6.40L169.47-6.40L169.47-6.40Q169.47-4.74 170.02-3.65L170.02-3.65L170.02-3.65Q170.56-2.56 172.03-2.56L172.03-2.56L172.03-2.56Q173.50-2.56 174.43-3.26L174.43-3.26L174.43-3.26Q175.36-3.97 176.06-5.63L176.06-5.63L176.06-5.63Q177.34-8.58 178.37-14.05L178.37-14.05L178.37-14.05Q179.39-19.52 179.49-21.89L179.49-21.89L179.49-21.89Q179.58-24.26 179.58-26.02L179.58-26.02L179.58-26.02Q179.58-27.78 179.07-28.93L179.07-28.93L179.07-28.93Q178.56-30.08 177.12-30.08L177.12-30.08L177.12-30.08Q175.68-30.08 174.72-29.18L174.72-29.18L174.72-29.18Q173.76-28.29 172.99-26.56ZM222.27 1.28L222.27 1.28L222.27 1.28Q214.53 1.28 214.53-4.74L214.53-4.74L214.53-4.74Q214.59-6.40 215.10-9.22L215.10-9.22L216.26-15.10L216.26-15.10Q217.98-23.42 217.98-25.28L217.98-25.28L217.98-25.28Q217.98-28.99 215.81-28.99L215.81-28.99L215.81-28.99Q212.16-28.99 210.24-19.46L210.24-19.46L206.46 0L193.60 1.28L200.26-32.70L210.75-33.92L209.73-27.65L209.73-27.65Q212.74-33.92 221.95-33.92L221.95-33.92L221.95-33.92Q226.43-33.92 228.32-32.03L228.32-32.03L228.32-32.03Q230.21-30.14 230.21-25.92L230.21-25.92L230.21-25.92Q230.21-21.95 228.16-12.67L228.16-12.67L228.16-12.67Q227.20-8.51 227.20-6.94L227.20-6.94L227.20-6.94Q227.20-5.38 228.06-4.48L228.06-4.48L228.06-4.48Q228.93-3.58 230.21-3.46L230.21-3.46L230.21-3.46Q229.57-1.28 227.36 0L227.36 0L227.36 0Q225.15 1.28 222.27 1.28ZM263.87-3.52L263.87-3.52L263.87-3.52Q261.89 1.28 255.55 1.28L255.55 1.28L255.55 1.28Q252.29 1.28 250.24-0.96L250.24-0.96L250.24-0.96Q248.51-2.94 248.51-4.93L248.51-4.93L248.51-4.93Q248.51-10.11 250.88-20.22L250.88-20.22L253.25-32.64L266.24-33.92L262.34-13.70L262.34-13.70Q261.25-8.96 261.25-7.30L261.25-7.30L261.25-7.30Q261.25-3.65 263.87-3.52ZM254.40-41.54L254.40-41.54L254.40-41.54Q254.40-44.03 256.48-45.38L256.48-45.38L256.48-45.38Q258.56-46.72 261.57-46.72L261.57-46.72L261.57-46.72Q264.58-46.72 266.40-45.38L266.40-45.38L266.40-45.38Q268.22-44.03 268.22-41.54L268.22-41.54L268.22-41.54Q268.22-39.04 266.21-37.76L266.21-37.76L266.21-37.76Q264.19-36.48 261.18-36.48L261.18-36.48L261.18-36.48Q258.18-36.48 256.29-37.76L256.29-37.76L256.29-37.76Q254.40-39.04 254.40-41.54ZM296.38 1.28L296.38 1.28L296.38 1.28Q288.64 1.28 288.64-4.74L288.64-4.74L288.64-4.74Q288.70-6.40 289.22-9.22L289.22-9.22L290.37-15.10L290.37-15.10Q292.10-23.42 292.10-25.28L292.10-25.28L292.10-25.28Q292.10-28.99 289.92-28.99L289.92-28.99L289.92-28.99Q286.27-28.99 284.35-19.46L284.35-19.46L280.58 0L267.71 1.28L274.37-32.70L284.86-33.92L283.84-27.65L283.84-27.65Q286.85-33.92 296.06-33.92L296.06-33.92L296.06-33.92Q300.54-33.92 302.43-32.03L302.43-32.03L302.43-32.03Q304.32-30.14 304.32-25.92L304.32-25.92L304.32-25.92Q304.32-21.95 302.27-12.67L302.27-12.67L302.27-12.67Q301.31-8.51 301.31-6.94L301.31-6.94L301.31-6.94Q301.31-5.38 302.18-4.48L302.18-4.48L302.18-4.48Q303.04-3.58 304.32-3.46L304.32-3.46L304.32-3.46Q303.68-1.28 301.47 0L301.47 0L301.47 0Q299.26 1.28 296.38 1.28ZM329.60-33.92L329.60-33.92L329.60-33.92Q331.90-33.92 333.70-33.41L333.70-33.41L333.70-33.41Q333.76-33.66 333.89-34.37L333.89-34.37L334.21-36.35L334.21-36.35Q334.46-37.63 334.85-39.74L334.85-39.74L335.87-44.80L348.61-46.08L341.50-8.96L341.50-8.96Q341.44-8.58 341.44-7.94L341.44-7.94L341.44-6.91L341.44-6.91Q341.44-5.50 342.14-4.45L342.14-4.45L342.14-4.45Q342.85-3.39 344-3.39L344-3.39L344-3.39Q342.72-0.38 338.82 0.90L338.82 0.90L338.82 0.90Q337.47 1.28 335.58 1.28L335.58 1.28L335.58 1.28Q333.70 1.28 331.97 0.29L331.97 0.29L331.97 0.29Q330.24-0.70 329.73-2.37L329.73-2.37L329.73-2.37Q328.70-0.70 326.66 0.29L326.66 0.29L326.66 0.29Q324.61 1.28 321.63 1.28L321.63 1.28L321.63 1.28Q318.66 1.28 316.19 0.51L316.19 0.51L316.19 0.51Q313.73-0.26 312.19-1.92L312.19-1.92L312.19-1.92Q309.38-5.18 309.38-12.61L309.38-12.61L309.38-12.61Q309.38-22.21 315.01-28.03L315.01-28.03L315.01-28.03Q320.64-33.92 329.60-33.92ZM329.15-30.08L329.15-30.08L329.15-30.08Q326.78-30.08 325.50-27.52L325.50-27.52L325.50-27.52Q324.22-24.96 322.91-18.62L322.91-18.62L322.91-18.62Q321.60-12.29 321.60-6.59L321.60-6.59L321.60-6.59Q321.60-2.69 323.90-2.69L323.90-2.69L323.90-2.69Q325.95-2.69 327.39-4.74L327.39-4.74L327.39-4.74Q328.83-6.78 329.41-10.18L329.41-10.18L332.86-28.93L332.86-28.93Q331.52-30.08 329.15-30.08ZM369.98-2.69L369.98-2.69L369.98-2.69Q366.91 1.28 359.30 1.28L359.30 1.28L359.30 1.28Q355.33 1.28 352.45-1.12L352.45-1.12L352.45-1.12Q349.57-3.52 349.57-6.98L349.57-6.98L349.57-6.98Q349.57-8.90 349.76-9.86L349.76-9.86L354.05-32.64L367.04-33.92L362.37-9.22L362.37-9.22Q362.11-7.81 362.11-6.98L362.11-6.98L362.11-6.98Q362.11-3.26 364.35-3.26L364.35-3.26L364.35-3.26Q366.85-3.26 368.64-6.66L368.64-6.66L368.64-6.66Q369.22-7.74 369.47-9.15L369.47-9.15L374.02-32.64L386.62-33.92L381.89-8.96L381.89-8.96Q381.70-8 381.70-6.98L381.70-6.98L381.70-6.98Q381.70-5.95 382.27-4.83L382.27-4.83L382.27-4.83Q382.85-3.71 384.70-3.46L384.70-3.46L384.70-3.46Q384.32-1.92 382.98-0.90L382.98-0.90L382.98-0.90Q380.16 1.28 377.12 1.28L377.12 1.28L377.12 1.28Q374.08 1.28 372.29 0.19L372.29 0.19L372.29 0.19Q370.50-0.90 369.98-2.69ZM409.22-22.46L409.22-22.46L409.22-22.46Q410.11-24.83 410.11-26.88L410.11-26.88L410.11-26.88Q410.11-30.66 407.04-30.66L407.04-30.66L407.04-30.66Q405.44-30.66 404.13-29.22L404.13-29.22L404.13-29.22Q402.82-27.78 402.82-25.98L402.82-25.98L402.82-25.98Q402.82-24.70 403.84-23.68L403.84-23.68L403.84-23.68Q405.31-22.27 409.09-19.97L409.09-19.97L409.09-19.97Q412.86-17.66 414.30-15.78L414.30-15.78L414.30-15.78Q415.74-13.89 415.74-11.30L415.74-11.30L415.74-11.30Q415.74-8.70 414.50-6.34L414.50-6.34L414.50-6.34Q413.25-3.97 411.01-2.30L411.01-2.30L411.01-2.30Q406.21 1.28 398.53 1.28L398.53 1.28L398.53 1.28Q394.37 1.28 391.17-0.90L391.17-0.90L391.17-0.90Q387.97-3.01 387.97-5.50L387.97-5.50L387.97-5.50Q387.97-8 389.79-9.47L389.79-9.47L389.79-9.47Q391.62-10.94 394.30-10.94L394.30-10.94L394.30-10.94Q396.99-10.94 398.66-9.92L398.66-9.92L398.66-9.92Q397.82-7.81 397.82-6.40L397.82-6.40L397.82-6.40Q397.82-2.18 401.41-2.18L401.41-2.18L401.41-2.18Q402.94-2.18 403.97-3.14L403.97-3.14L403.97-3.14Q404.99-4.10 404.99-5.76L404.99-5.76L404.99-5.76Q404.99-9.02 399.49-12.48L399.49-12.48L399.49-12.48Q395.01-15.42 393.98-16.58L393.98-16.58L393.98-16.58Q392.26-18.62 392.26-21.18L392.26-21.18L392.26-21.18Q392.26-23.74 393.47-26.18L393.47-26.18L393.47-26.18Q394.69-28.61 396.93-30.34L396.93-30.34L396.93-30.34Q401.60-33.92 409.73-33.92L409.73-33.92L409.73-33.92Q413.89-33.92 416.35-32.26L416.35-32.26L416.35-32.26Q418.82-30.59 418.82-27.78L418.82-27.78L418.82-27.78Q418.82-24.96 417.12-23.36L417.12-23.36L417.12-23.36Q415.42-21.76 412.35-21.76L412.35-21.76L412.35-21.76Q410.24-21.76 409.22-22.46ZM422.21-6.40L422.21-6.40L422.21-6.40Q422.21-8.13 423.10-12.48L423.10-12.48L426.50-29.76L422.72-29.76L422.98-31.68L422.98-31.68Q430.66-33.98 438.08-39.62L438.08-39.62L441.15-39.62L439.62-32.64L444.61-32.64L444.03-29.76L439.10-29.76L435.84-12.48L435.84-12.48Q435.01-8.51 435.01-7.17L435.01-7.17L435.01-7.17Q435.01-4.10 437.70-3.46L437.70-3.46L437.70-3.46Q437.06-1.28 434.75 0L434.75 0L434.75 0Q432.45 1.28 429.18 1.28L429.18 1.28L429.18 1.28Q425.92 1.28 424.06-0.77L424.06-0.77L424.06-0.77Q422.21-2.82 422.21-6.40ZM464.32-17.98L464.32-17.98L464.32-17.98Q466.62-22.08 466.62-26.24L466.62-26.24L466.62-26.24Q466.62-28.99 464.64-28.99L464.64-28.99L464.64-28.99Q463.10-28.99 461.50-26.37L461.50-26.37L461.50-26.37Q459.84-23.74 459.33-20.35L459.33-20.35L456.00 0L442.75 1.28L449.28-32.64L459.84-33.92L458.69-27.46L458.69-27.46Q461.82-33.92 468.86-33.92L468.86-33.92L468.86-33.92Q472.58-33.92 474.59-32L474.59-32L474.59-32Q476.61-30.08 476.61-26.14L476.61-26.14L476.61-26.14Q476.61-22.21 474.02-19.71L474.02-19.71L474.02-19.71Q471.42-17.22 467.01-17.22L467.01-17.22L467.01-17.22Q465.09-17.22 464.32-17.98ZM497.98-7.23L497.98-7.23L497.98-7.23Q494.66-3.78 488.58-3.78L488.58-3.78L488.58-3.78Q480.96-3.78 479.36-9.34L479.36-9.34L479.36-9.34Q478.85-11.01 478.85-12.86L478.85-12.86L478.85-12.86Q478.85-14.72 479.23-16.64L479.23-16.64L482.24-32.64L495.23-33.92L491.71-15.30L491.71-15.30Q491.58-14.46 491.39-13.57L491.39-13.57L491.39-13.57Q491.20-12.67 491.20-11.74L491.20-11.74L491.20-11.74Q491.20-10.82 491.52-10.21L491.52-10.21L491.52-10.21Q491.84-9.60 492.29-9.22L492.29-9.22L492.29-9.22Q493.06-8.70 494.43-8.70L494.43-8.70L494.43-8.70Q495.81-8.70 496.99-10.37L496.99-10.37L496.99-10.37Q498.18-12.03 498.75-14.91L498.75-14.91L502.27-32.64L514.88-33.92L510.08-8.77L510.08-8.77Q507.71 3.52 502.85 8.38L502.85 8.38L502.85 8.38Q500.35 10.88 497.12 11.87L497.12 11.87L497.12 11.87Q493.89 12.86 489.73 12.86L489.73 12.86L489.73 12.86Q483.01 12.86 479.17 10.75L479.17 10.75L479.17 10.75Q475.33 8.64 475.33 5.12L475.33 5.12L475.33 5.12Q475.33 2.50 477.31 0.99L477.31 0.99L477.31 0.99Q479.30-0.51 482.37-0.51L482.37-0.51L482.37-0.51Q485.06-0.51 487.10 0.64L487.10 0.64L487.10 0.64Q488.32 1.34 488.90 2.24L488.90 2.24L488.90 2.24Q487.42 3.52 487.42 5.63L487.42 5.63L487.42 5.63Q487.42 8.45 489.98 8.45L489.98 8.45L489.98 8.45Q494.21 8.45 496.64-1.28L496.64-1.28L496.64-1.28Q497.34-4.16 497.98-7.23Z" fill="url(#editing-outline-gradient)"></path></g></g><style>text {
  font-size: 64px;
  font-family: Arial Black;
  dominant-baseline: central;
  text-anchor: middle;
}</style></svg>